<?xml version="1.0" encoding="UTF-8"?>
<svg version="1.1" xmlns="http://www.w3.org/2000/svg" width="661" height="195">
<path d="M0 0 C218.13 0 436.26 0 661 0 C661 64.35 661 128.7 661 195 C442.87 195 224.74 195 0 195 C0 130.65 0 66.3 0 0 Z " fill="#FEFEFE" transform="translate(0,0)"/>
<path d="M0 0 C1.43363892 0.00326294 1.43363892 0.00326294 2.89624023 0.0065918 C11.78892175 0.27415921 17.86252985 2.83525167 25.25 7.6875 C26.91466494 8.69082867 28.58063673 9.69200814 30.25 10.6875 C30.86746094 10.30078125 31.48492187 9.9140625 32.12109375 9.515625 C32.96800781 8.99484375 33.81492187 8.4740625 34.6875 7.9375 C35.51121094 7.42703125 36.33492188 6.9165625 37.18359375 6.390625 C44.62532971 2.25738057 50.46458446 -0.0050093 59.0625 0.1875 C59.93688721 0.20031006 60.81127441 0.21312012 61.7121582 0.22631836 C73.29731912 0.58745047 81.65728481 3.89204704 90.25 11.6875 C91.61125 12.8940625 91.61125 12.8940625 93 14.125 C102.36027611 24.78531446 104.86804173 36.21335261 104.74609375 50.1484375 C104.74624915 51.51079383 104.74774485 52.8731506 104.75050354 54.23550415 C104.75187691 57.06785005 104.73950078 59.89968293 104.71655273 62.73193359 C104.68800627 66.35334387 104.69096336 69.97391431 104.70364285 73.59538841 C104.71060607 76.39904921 104.70280628 79.20251698 104.69038582 82.00615311 C104.68371468 83.98751992 104.68800103 85.96891391 104.69248962 87.95028687 C104.67980545 89.15569122 104.66712128 90.36109558 104.65405273 91.60302734 C104.64864975 92.66016937 104.64324677 93.7173114 104.63768005 94.80648804 C104.01962595 99.39950552 102.07636684 101.94175431 98.6875 105 C94.06048005 107.27144616 90.30309674 107.86733211 85.25 106.6875 C81.05853863 104.10813915 77.82396055 101.40938166 76.25 96.6875 C76.15393868 94.93534379 76.1146066 93.17982447 76.1081543 91.42504883 C76.09760262 89.81240898 76.09760262 89.81240898 76.08683777 88.16719055 C76.08267349 87.00471298 76.07850922 85.84223541 76.07421875 84.64453125 C76.05101535 82.18423628 76.02689781 79.7239498 76.00195312 77.26367188 C75.96687716 73.3839759 75.93751591 69.50459091 75.92407227 65.62475586 C75.90855964 61.88096367 75.86832065 58.13808178 75.82421875 54.39453125 C75.82708138 52.66599663 75.82708138 52.66599663 75.83000183 50.90254211 C75.72629757 44.04263961 74.92460336 39.52837484 71.25 33.6875 C67.14182361 29.82830399 62.97371235 29.33063975 57.53125 29.41015625 C52.82273567 29.98259549 50.17954843 32.66097092 47.11352539 36.046875 C43.98735376 40.91339625 44.70727888 46.73806307 44.74609375 52.3125 C44.73667252 53.53275879 44.72725128 54.75301758 44.71754456 56.01025391 C44.68890338 59.90284065 44.68581631 63.7948164 44.6875 67.6875 C44.68389218 71.58009427 44.67435756 75.47224456 44.64674377 79.36474609 C44.62996028 81.78428536 44.62707559 84.2039709 44.63975525 86.62353516 C44.57558495 96.89078246 44.57558495 96.89078246 41.25 101.6875 C36.88769606 105.72263114 33.38803388 107.11262198 27.37890625 107.03515625 C23.61800062 106.42099001 20.8742421 104.37817861 18.25 101.6875 C15.65361464 97.98558674 14.87668406 95.50355524 14.88110352 90.99853516 C14.87422012 89.88032379 14.86733673 88.76211243 14.86024475 87.61001587 C14.86640305 86.41097626 14.87256134 85.21193665 14.87890625 83.9765625 C14.86152395 81.42708199 14.84393956 78.87760285 14.82617188 76.328125 C14.81609909 72.31670156 14.81250007 68.30537595 14.81420898 64.29394531 C14.81063603 60.41704776 14.78328028 56.54083762 14.75390625 52.6640625 C14.76208878 51.46907135 14.7702713 50.2740802 14.77870178 49.0428772 C14.71940344 42.39830931 14.3699182 38.01861393 10.25 32.6875 C5.42000759 29.80808145 0.77513547 28.71056053 -4.75 29.6875 C-9.60361261 31.48944001 -12.47885355 34.03473319 -14.75 38.6875 C-15.18280857 41.43211765 -15.18280857 41.43211765 -15.10302734 44.3605957 C-15.10851089 46.03307121 -15.10851089 46.03307121 -15.11410522 47.73933411 C-15.10480988 48.93523666 -15.09551453 50.13113922 -15.0859375 51.36328125 C-15.098451 53.90820567 -15.11148816 56.45312756 -15.125 58.99804688 C-15.12892823 63.00066839 -15.12562767 67.00302993 -15.11035156 71.00561523 C-15.1017657 74.87521445 -15.12349348 78.7437735 -15.1484375 82.61328125 C-15.13509369 83.80311111 -15.12174988 84.99294098 -15.10800171 86.21882629 C-15.17099055 93.32997304 -16.00049904 98.22743009 -20.75 103.6875 C-24.37842539 106.91276701 -27.83484823 107.2072058 -32.53515625 107.04296875 C-36.93619176 106.33662972 -39.70238153 103.87961757 -42.5625 100.625 C-44.60724795 97.2888323 -44.8768593 94.55236627 -44.8918457 90.73217773 C-44.89888016 89.72360214 -44.90591461 88.71502655 -44.91316223 87.67588806 C-44.91732651 86.58530594 -44.92149078 85.49472382 -44.92578125 84.37109375 C-44.94899179 82.05663165 -44.97310961 79.74217851 -44.99804688 77.42773438 C-45.0330612 73.78306189 -45.06244928 70.13871616 -45.07592773 66.49389648 C-45.09149141 62.97339228 -45.13176894 59.4538428 -45.17578125 55.93359375 C-45.17387283 54.85718124 -45.17196442 53.78076874 -45.16999817 52.67173767 C-45.28524847 45.4688931 -46.07763017 37.70746056 -51.16157532 32.14231873 C-52.6344032 30.91909822 -54.19206899 29.80030787 -55.75 28.6875 C-60.29229781 24.45490432 -62.42660451 22.1129662 -63.25 15.9375 C-63.13407055 10.77863931 -60.3464267 7.20143984 -56.75 3.6875 C-52.55378784 1.10391666 -48.55014144 0.78891352 -43.75 1.6875 C-40.48696433 3.36397051 -37.66407069 5.47235536 -34.75 7.6875 C-33.09235502 8.70238468 -31.43084758 9.71152398 -29.75 10.6875 C-29.21632812 10.30078125 -28.68265625 9.9140625 -28.1328125 9.515625 C-27.38773438 8.99484375 -26.64265625 8.4740625 -25.875 7.9375 C-25.15570313 7.42703125 -24.43640625 6.9165625 -23.6953125 6.390625 C-15.95195602 1.91303425 -8.9412313 -0.0657036 0 0 Z " fill="#FE026A" transform="translate(110.75,44.3125)"/>
<path d="M0 0 C0.87438721 0.01281006 1.74877441 0.02562012 2.6496582 0.03881836 C14.23481912 0.39995047 22.59478481 3.70454704 31.1875 11.5 C32.54875 12.7065625 32.54875 12.7065625 33.9375 13.9375 C43.29777611 24.59781446 45.80554173 36.02585261 45.68359375 49.9609375 C45.68374915 51.32329383 45.68524485 52.6856506 45.68800354 54.04800415 C45.68937691 56.88035005 45.67700078 59.71218293 45.65405273 62.54443359 C45.62550627 66.16584387 45.62846336 69.78641431 45.64114285 73.40788841 C45.64810607 76.21154921 45.64030628 79.01501698 45.62788582 81.81865311 C45.62121468 83.80001992 45.62550103 85.78141391 45.62998962 87.76278687 C45.61730545 88.96819122 45.60462128 90.17359558 45.59155273 91.41552734 C45.58614975 92.47266937 45.58074677 93.5298114 45.57518005 94.61898804 C44.95712595 99.21200552 43.01386684 101.75425431 39.625 104.8125 C34.99798005 107.08394616 31.24059674 107.67983211 26.1875 106.5 C21.99603863 103.92063915 18.76146055 101.22188166 17.1875 96.5 C17.09143868 94.74784379 17.0521066 92.99232447 17.0456543 91.23754883 C17.03861984 90.1624556 17.03158539 89.08736237 17.02433777 87.97969055 C17.02017349 86.81721298 17.01600922 85.65473541 17.01171875 84.45703125 C16.98851535 81.99673628 16.96439781 79.5364498 16.93945312 77.07617188 C16.90437716 73.1964759 16.87501591 69.31709091 16.86157227 65.43725586 C16.84605964 61.69346367 16.80582065 57.95058178 16.76171875 54.20703125 C16.76362717 53.05467484 16.76553558 51.90231842 16.76750183 50.71504211 C16.66379757 43.85513961 15.86210336 39.34087484 12.1875 33.5 C8.07932361 29.64080399 3.91121235 29.14313975 -1.53125 29.22265625 C-5.13954118 29.66133549 -7.12252401 31.12281192 -9.8125 33.5 C-11.18071051 35.47630407 -12.52201192 37.47209016 -13.8125 39.5 C-14.4725 39.5 -15.1325 39.5 -15.8125 39.5 C-15.85375 38.4275 -15.895 37.355 -15.9375 36.25 C-17.11173741 26.93879348 -22.65271263 19.24643378 -28.8125 12.5 C-28.8125 11.84 -28.8125 11.18 -28.8125 10.5 C-26.94140625 9.1328125 -26.94140625 9.1328125 -24.375 7.625 C-23.55128906 7.13257813 -22.72757813 6.64015625 -21.87890625 6.1328125 C-14.37824802 2.13883143 -8.60304671 -0.19262419 0 0 Z " fill="#A422BA" transform="translate(169.8125,44.5)"/>
<path d="M0 0 C3.29860561 1.6466297 6.10597658 3.73017771 9 6 C9.86625 6.5775 10.7325 7.155 11.625 7.75 C21.77587686 17.36662018 27.85445124 31.84165554 28.30639648 45.73828125 C28.3396123 47.92954188 28.36055166 50.12101299 28.37109375 52.3125 C28.38463646 54.06494019 28.38463646 54.06494019 28.39845276 55.8527832 C28.41290732 58.31361343 28.42183001 60.77448167 28.42553711 63.23535156 C28.43746278 66.98828836 28.48672417 70.73959555 28.53710938 74.4921875 C28.54657148 76.89061703 28.55380753 79.28905658 28.55859375 81.6875 C28.57812607 82.80229736 28.59765839 83.91709473 28.61778259 85.06567383 C28.57783335 91.99824157 27.56828251 96.65984029 23 102 C19.37157461 105.22526701 15.91515177 105.5197058 11.21484375 105.35546875 C6.81380824 104.64912972 4.04761847 102.19211757 1.1875 98.9375 C-0.85724795 95.6013323 -1.1268593 92.86486627 -1.1418457 89.04467773 C-1.14888016 88.03610214 -1.15591461 87.02752655 -1.16316223 85.98838806 C-1.16732651 84.89780594 -1.17149078 83.80722382 -1.17578125 82.68359375 C-1.19899179 80.36913165 -1.22310961 78.05467851 -1.24804688 75.74023438 C-1.2830612 72.09556189 -1.31244928 68.45121616 -1.32592773 64.80639648 C-1.34149141 61.28589228 -1.38176894 57.7663428 -1.42578125 54.24609375 C-1.42387283 53.16968124 -1.42196442 52.09326874 -1.41999817 50.98423767 C-1.53524847 43.7813931 -2.32763017 36.01996056 -7.41157532 30.45481873 C-8.8844032 29.23159822 -10.44206899 28.11280787 -12 27 C-16.54229781 22.76740432 -18.67660451 20.4254662 -19.5 14.25 C-19.38407055 9.09113931 -16.5964267 5.51393984 -13 2 C-8.80017841 -0.58580565 -4.80405805 -0.89163317 0 0 Z " fill="#FEA219" transform="translate(67,46)"/>
<path d="M0 0 C3.0625 2.3125 3.0625 2.3125 4 5.0625 C4.020625 5.805 4.04125 6.5475 4.0625 7.3125 C4.7225 7.3125 5.3825 7.3125 6.0625 7.3125 C5.959375 6.57 5.85625 5.8275 5.75 5.0625 C6.0625 2.3125 6.0625 2.3125 8.0625 0 C12.16851006 -2.30963066 14.38851645 -2.21520782 19.0625 -1.6875 C21.72773135 0.0893209 22.79768584 2.41214922 24.0625 5.3125 C24.32319641 7.46151733 24.32319641 7.46151733 24.3371582 9.80224609 C24.35145622 11.12414444 24.35145622 11.12414444 24.36604309 12.4727478 C24.36513168 13.4176004 24.36422028 14.362453 24.36328125 15.3359375 C24.36756638 16.31486969 24.3718515 17.29380188 24.37626648 18.30239868 C24.38200536 20.37183866 24.38251329 22.4412988 24.37817383 24.51074219 C24.37501851 27.66897218 24.39846274 30.82626109 24.42382812 33.984375 C24.42610169 35.99739465 24.42680435 38.01041682 24.42578125 40.0234375 C24.434991 40.96424164 24.44420074 41.90504578 24.45368958 42.87435913 C24.41710684 48.08720642 24.05968858 51.84418806 21.0625 56.3125 C17.31202518 58.81281654 15.50393734 58.84853554 11.0625 58.3125 C8.43233839 56.1397578 6.58913106 54.36576212 5.0625 51.3125 C4.59199219 51.73402344 4.12148438 52.15554687 3.63671875 52.58984375 C3.01410156 53.13769531 2.39148438 53.68554688 1.75 54.25 C1.13511719 54.79527344 0.52023438 55.34054688 -0.11328125 55.90234375 C-3.31183549 58.37488782 -6.69388591 58.770724 -10.67578125 58.7265625 C-16.14243958 57.72575804 -20.64234032 54.01239708 -23.9375 49.6875 C-26.54666714 43.49072804 -26.15879251 37.27509224 -26.17773438 30.6328125 C-26.1874037 28.58291473 -26.2184364 26.5340363 -26.25 24.484375 C-26.28373391 15.91596138 -26.16676885 9.32726668 -20.625 2.4375 C-14.58565972 -2.33779232 -6.93512763 -3.5101978 0 0 Z " fill="#363636" transform="translate(254.9375,81.6875)"/>
<path d="M0 0 C2.76421869 1.65948769 4.88615394 3.5759308 7 6 C7.825 5.01 8.65 4.02 9.5 3 C11.99384206 0.50024836 13.57154609 -0.46268388 17.125 -0.5625 C20.87194262 -0.01858898 22.46764012 0.26505133 25 3 C25.94428193 5.8328458 26.13637184 7.62174955 26.16113281 10.55981445 C26.17074036 11.48119705 26.1803479 12.40257965 26.19024658 13.35188293 C26.19449646 14.34564438 26.19874634 15.33940582 26.203125 16.36328125 C26.20882507 17.38802048 26.21452515 18.4127597 26.22039795 19.46855164 C26.22984715 21.63812223 26.23638161 23.80770717 26.24023438 25.97729492 C26.24993165 29.28915596 26.28095281 32.60039422 26.3125 35.91210938 C26.31903106 38.02082965 26.32428113 40.12955436 26.328125 42.23828125 C26.3404718 43.22597 26.3528186 44.21365875 26.36553955 45.23127747 C26.34836158 50.55930034 26.07035885 54.42669769 23 59 C19.73185887 60.63407057 16.50227293 60.8301684 13 60 C10.56445338 57.95332217 8.7719121 55.63102099 7 53 C6.236875 53.78375 5.47375 54.5675 4.6875 55.375 C1.38730239 58.59844883 -0.65178518 60.29461163 -5.25 60.375 C-10.26160146 60.25276582 -12.95223814 58.93661154 -17 56 C-24.57343514 47.81250255 -24.2430597 38.90118059 -24.375 28.25 C-24.41238281 27.12078125 -24.44976562 25.9915625 -24.48828125 24.828125 C-24.56787391 17.18722917 -23.4756219 11.32345354 -19 5 C-13.59126389 -0.16064857 -7.31942313 -1.5963727 0 0 Z " fill="#353535" transform="translate(479,80)"/>
<path d="M0 0 C6.17930825 0.27510619 6.17930825 0.27510619 9.28125 2.6015625 C12.04276299 6.5137059 11.97700935 9.74491081 12.0625 14.40234375 C12.09011414 15.54560371 12.09011414 15.54560371 12.11828613 16.71195984 C12.17709696 19.15424808 12.22985013 21.59660773 12.28125 24.0390625 C12.34912859 27.24362981 12.42289279 30.4479868 12.5 33.65234375 C12.51357544 34.38584549 12.52715088 35.11934723 12.5411377 35.87507629 C12.63090851 39.60118721 12.9043504 43.09958859 13.78125 46.7265625 C18.77500552 45.73790547 18.77500552 45.73790547 22.65625 42.6640625 C25.79527651 34.46771549 25.07284201 24.57800596 25.29882812 15.90234375 C25.33298828 14.92136719 25.36714844 13.94039062 25.40234375 12.9296875 C25.4273999 12.04958008 25.45245605 11.16947266 25.47827148 10.26269531 C25.94976361 6.31599088 26.96165303 3.54615947 29.78125 0.7265625 C32.81889616 0.22224287 35.73814139 0.27713543 38.78125 0.7265625 C41.81340675 2.92487614 42.59779398 4.17619444 43.78125 7.7265625 C43.8772687 9.1882426 43.91933387 10.65383947 43.92651367 12.11865234 C43.93289352 13.00322113 43.93927338 13.88778992 43.94584656 14.79916382 C43.94695938 15.75231476 43.9480722 16.7054657 43.94921875 17.6875 C43.95421135 19.16157822 43.95421135 19.16157822 43.95930481 20.66543579 C43.96436879 22.74505139 43.9667133 24.82467512 43.96655273 26.90429688 C43.96873667 30.08216795 43.98689105 33.25969047 44.00585938 36.4375 C44.00879392 38.45833215 44.01077831 40.47916594 44.01171875 42.5 C44.01890427 43.44910248 44.02608978 44.39820496 44.03349304 45.37606812 C44.01463909 50.83544434 43.58882192 54.81436329 40.65625 59.5390625 C37.53223949 61.51760249 34.29016931 61.47212235 30.78125 60.7265625 C27.56170355 58.19202593 26.07692565 56.61358945 24.78125 52.7265625 C24.059375 53.6753125 23.3375 54.6240625 22.59375 55.6015625 C19.28598209 59.53011598 16.57562142 60.52342611 11.46875 61.1015625 C5.68725439 60.51361379 1.51229515 58.45760765 -2.59375 54.3515625 C-6.12809207 48.64224069 -6.53660745 43.34582121 -6.5546875 36.8203125 C-6.5613443 35.97738647 -6.5680011 35.13446045 -6.57485962 34.26599121 C-6.58494533 32.49098887 -6.58967791 30.71594893 -6.58935547 28.94091797 C-6.5937368 26.23471522 -6.63012034 23.53013436 -6.66796875 20.82421875 C-6.67383629 19.09375554 -6.6778061 17.36328464 -6.6796875 15.6328125 C-6.69405853 14.82952515 -6.70842957 14.02623779 -6.72323608 13.1986084 C-6.67984727 7.83259768 -5.8245478 1.90733432 0 0 Z " fill="#343434" transform="translate(351.21875,79.2734375)"/>
<path d="M0 0 C0.78503906 0.01417969 1.57007813 0.02835937 2.37890625 0.04296875 C3.55259766 0.05263672 3.55259766 0.05263672 4.75 0.0625 C6.94140625 0.23046875 6.94140625 0.23046875 9.94140625 1.23046875 C11.62890625 4.79296875 11.62890625 4.79296875 12.94140625 8.23046875 C13.35390625 7.46734375 13.76640625 6.70421875 14.19140625 5.91796875 C15.97630994 3.17686665 17.17547086 1.91429257 19.94140625 0.23046875 C26.01099667 -0.70472494 31.85000112 -0.4062492 36.94140625 3.23046875 C42.86003543 9.41812653 44.25155348 14.1919011 44.20703125 22.6015625 C44.20990143 23.80148582 44.20990143 23.80148582 44.21282959 25.02565002 C44.21418664 26.71249711 44.21052378 28.3993548 44.20214844 30.08618164 C44.19145604 32.65600274 44.20205256 35.22512259 44.21484375 37.79492188 C44.21352179 39.43880361 44.21095866 41.08268492 44.20703125 42.7265625 C44.21107971 43.48923935 44.21512817 44.2519162 44.21929932 45.03770447 C44.18078033 49.46237281 43.73506853 53.10434426 41.94140625 57.23046875 C39.20863184 59.50778076 37.39710541 60.16536887 33.87890625 60.66796875 C30.24544593 60.12681508 29.15729278 59.10291426 26.94140625 56.23046875 C25.72588863 52.58391588 25.74885975 49.186326 25.6953125 45.38671875 C25.66238605 43.81509835 25.62917421 42.2434839 25.59570312 40.671875 C25.54822261 38.19649182 25.5037586 35.72113485 25.46459961 33.24560547 C25.42492074 30.85489421 25.37338146 28.46466497 25.3203125 26.07421875 C25.31189835 25.33353149 25.30348419 24.59284424 25.29481506 23.82971191 C25.20513383 20.10700444 25.05854197 18.40617234 22.94140625 15.23046875 C19.50347286 15.4117669 19.50347286 15.4117669 15.94140625 16.23046875 C12.52236001 20.42657095 12.81634955 27.13820284 12.6953125 32.328125 C12.66244141 33.45927734 12.62957031 34.59042969 12.59570312 35.75585938 C12.53440644 38.117738 12.47712751 40.47972425 12.42382812 42.84179688 C12.38966797 43.97166016 12.35550781 45.10152344 12.3203125 46.265625 C12.29525635 47.29051025 12.2702002 48.31539551 12.24438477 49.37133789 C11.85508439 53.04506607 10.75705488 55.91636818 8.81640625 59.04296875 C5.71564274 61.00678564 2.4387769 60.87212345 -1.05859375 60.23046875 C-4.30420344 57.90028743 -5.32245676 56.0612041 -6.05859375 52.23046875 C-6.15161878 50.73069887 -6.19647115 49.22748747 -6.20385742 47.72485352 C-6.21023727 46.84036026 -6.21661713 45.955867 -6.22319031 45.04457092 C-6.22430313 44.09658127 -6.22541595 43.14859161 -6.2265625 42.171875 C-6.2315551 40.6999192 -6.2315551 40.6999192 -6.23664856 39.19822693 C-6.241707 37.12458769 -6.24405722 35.05094033 -6.24389648 32.97729492 C-6.24608317 29.80829445 -6.26425102 26.63964204 -6.28320312 23.47070312 C-6.28613724 21.45442827 -6.28812191 19.43815177 -6.2890625 17.421875 C-6.29624802 16.47590958 -6.30343353 15.52994415 -6.31083679 14.55531311 C-6.26281747 0.70115034 -6.26281747 0.70115034 0 0 Z " fill="#343434" transform="translate(526.05859375,79.76953125)"/>
<path d="M0 0 C2.96858157 2.20740681 3.82865791 3.48597373 5 7 C5.07973476 8.33525717 5.10771338 9.67412083 5.09765625 11.01171875 C5.09443359 11.76904297 5.09121094 12.52636719 5.08789062 13.30664062 C5.07951172 14.09232422 5.07113281 14.87800781 5.0625 15.6875 C5.05798828 16.48478516 5.05347656 17.28207031 5.04882812 18.10351562 C5.0370585 20.06904257 5.01912348 22.03453085 5 24 C5.68707031 23.97679688 6.37414062 23.95359375 7.08203125 23.9296875 C8.43361328 23.90261719 8.43361328 23.90261719 9.8125 23.875 C10.70582031 23.85179688 11.59914063 23.82859375 12.51953125 23.8046875 C15 24 15 24 18 26 C18.3984375 28.05859375 18.3984375 28.05859375 18.375 30.4375 C18.38660156 31.61119141 18.38660156 31.61119141 18.3984375 32.80859375 C17.89721846 35.56529844 17.2132128 36.30900932 15 38 C12.51953125 38.29296875 12.51953125 38.29296875 9.8125 38.1875 C8.91144531 38.16042969 8.01039063 38.13335937 7.08203125 38.10546875 C6.39496094 38.07066406 5.70789063 38.03585938 5 38 C5.1096972 42.10472658 5.24036976 46.20852148 5.375 50.3125 C5.4059375 51.47974609 5.436875 52.64699219 5.46875 53.84960938 C5.50742187 54.96787109 5.54609375 56.08613281 5.5859375 57.23828125 C5.63306885 58.7857605 5.63306885 58.7857605 5.68115234 60.36450195 C5.82674629 63.22843236 5.82674629 63.22843236 8 66 C10.33247761 66.33926947 12.66585471 66.67240066 15 67 C17.13875453 68.5855432 17.89085983 69.50614075 18.46875 72.12109375 C18.55347918 78.40164413 18.55347918 78.40164413 15.6875 81.5 C10.23602264 84.54268504 5.11006193 84.49020554 -1 84 C-5.20513935 82.47085842 -8.28908335 80.58228272 -11 77 C-13.7336048 69.19662461 -13.22305955 61.15374382 -13.125 53 C-13.11495155 51.54297489 -13.10582899 50.08594309 -13.09765625 48.62890625 C-13.07578711 45.08579671 -13.04135977 41.54294188 -13 38 C-14.2684375 38.020625 -15.536875 38.04125 -16.84375 38.0625 C-19.52880953 38.1061595 -20.96393763 38.01442495 -23.5 37 C-25.52996308 34.29338257 -25.39862042 32.2471584 -25.3359375 28.9375 C-25 27 -25 27 -23 24 C-20.6171875 23.70703125 -20.6171875 23.70703125 -17.875 23.8125 C-16.96492187 23.83957031 -16.05484375 23.86664063 -15.1171875 23.89453125 C-14.41851563 23.92933594 -13.71984375 23.96414062 -13 24 C-13.02320313 22.83082031 -13.04640625 21.66164063 -13.0703125 20.45703125 C-13.08907821 18.90886058 -13.10727755 17.36068297 -13.125 15.8125 C-13.14175781 15.04357422 -13.15851562 14.27464844 -13.17578125 13.48242188 C-13.21218113 9.24183528 -13.15395864 5.78725839 -11 2 C-7.32807887 -0.44794742 -4.26893972 -0.71435887 0 0 Z " fill="#353535" transform="translate(606,56)"/>
<path d="M0 0 C3.33387324 0.06967902 4.34939157 0.17518389 7.125 2.1875 C9.24368573 5.27725002 9.7501439 7.73086116 9.72265625 11.38671875 C9.71943359 12.14404297 9.71621094 12.90136719 9.71289062 13.68164062 C9.70451172 14.46732422 9.69613281 15.25300781 9.6875 16.0625 C9.68298828 16.85978516 9.67847656 17.65707031 9.67382812 18.47851562 C9.6620585 20.44404257 9.64412348 22.40953085 9.625 24.375 C10.31207031 24.34019531 10.99914062 24.30539063 11.70703125 24.26953125 C12.60808594 24.24246094 13.50914062 24.21539062 14.4375 24.1875 C15.77748047 24.13529297 15.77748047 24.13529297 17.14453125 24.08203125 C19.625 24.375 19.625 24.375 21.42578125 25.63671875 C22.86113172 27.71727562 23.02852591 28.86471967 23 31.375 C23.01160156 32.3959375 23.01160156 32.3959375 23.0234375 33.4375 C22.49614956 36.00156687 21.68904528 36.77977586 19.625 38.375 C17.14453125 38.66796875 17.14453125 38.66796875 14.4375 38.5625 C13.53644531 38.53542969 12.63539063 38.50835937 11.70703125 38.48046875 C11.01996094 38.44566406 10.33289063 38.41085938 9.625 38.375 C9.7346972 42.47972658 9.86536976 46.58352148 10 50.6875 C10.0309375 51.85474609 10.061875 53.02199219 10.09375 54.22460938 C10.13242187 55.34287109 10.17109375 56.46113281 10.2109375 57.61328125 C10.25806885 59.1607605 10.25806885 59.1607605 10.30615234 60.73950195 C10.45174629 63.60343236 10.45174629 63.60343236 12.625 66.375 C14.95747761 66.71426947 17.29085471 67.04740066 19.625 67.375 C21.80248617 68.97682891 22.52872167 69.85396435 23.0234375 72.53125 C23.01570313 73.3046875 23.00796875 74.078125 23 74.875 C23.01160156 76.03515625 23.01160156 76.03515625 23.0234375 77.21875 C22.52018194 79.9422507 21.82746465 80.72074708 19.625 82.375 C14.39444975 84.97722051 9.3508963 84.92232832 3.625 84.375 C-0.60263616 82.83767776 -3.55991096 80.89386129 -6.375 77.375 C-8.29751636 72.73341065 -8.64440147 68.52892464 -8.5703125 63.5703125 C-8.5674826 62.8463327 -8.56465271 62.12235291 -8.56173706 61.37643433 C-8.55062087 59.0841151 -8.52553312 56.79219937 -8.5 54.5 C-8.4899591 52.93750568 -8.48083519 51.37500518 -8.47265625 49.8125 C-8.45070973 45.99984662 -8.41624013 42.18749152 -8.375 38.375 C-10.27765625 38.42333984 -10.27765625 38.42333984 -12.21875 38.47265625 C-15.29500951 38.55081325 -16.16952047 38.50342471 -18.875 36.8125 C-20.93521138 33.46465651 -20.86625459 31.23485753 -20.375 27.375 C-19.140625 25.671875 -19.140625 25.671875 -17.375 24.375 C-15.11328125 24.08203125 -15.11328125 24.08203125 -12.6875 24.1875 C-11.87925781 24.21457031 -11.07101562 24.24164063 -10.23828125 24.26953125 C-9.62339844 24.30433594 -9.00851562 24.33914062 -8.375 24.375 C-8.39820313 23.20582031 -8.42140625 22.03664063 -8.4453125 20.83203125 C-8.46407821 19.28386058 -8.48227755 17.73568297 -8.5 16.1875 C-8.51675781 15.41857422 -8.53351563 14.64964844 -8.55078125 13.85742188 C-8.587445 9.58609549 -8.45117368 6.22971408 -6.375 2.375 C-3.98213116 -0.01786884 -3.28052906 0.05449384 0 0 Z " fill="#343434" transform="translate(309.375,55.625)"/>
<path d="M0 0 C2.77438659 1.72461869 3.74518241 3.15400561 4.68359375 6.26953125 C5.19444505 8.50670761 5.63222751 10.73529573 6 13 C6.391875 11.948125 6.78375 10.89625 7.1875 9.8125 C9.02657921 5.49504262 11.73600645 2.13199677 16 0 C19.46500939 -0.37663145 21.36348003 -0.38526209 24.375 1.4375 C26.43180323 4.68092047 26.47958874 7.00997776 26.53125 10.78125 C25.78342264 13.90452897 24.52721405 15.04887301 22 17 C18.94421111 17.95160137 15.92069677 18.5031571 12.77734375 19.09375 C9.42993262 20.18601355 8.74272325 20.98666563 7 24 C6.54509821 26.99461674 6.54509821 26.99461674 6.59375 30.3046875 C6.57183594 31.52800781 6.54992187 32.75132813 6.52734375 34.01171875 C6.51832031 35.28660156 6.50929688 36.56148437 6.5 37.875 C6.48206662 40.39335921 6.45126194 42.91166672 6.40625 45.4296875 C6.39916016 46.54585449 6.39207031 47.66202148 6.38476562 48.81201172 C5.94290508 52.47306185 4.9199806 54.86452052 3 58 C-0.7205836 60.48038907 -2.59796571 60.46337203 -7 60 C-9.36497439 58.13291495 -10.66030715 56.67938569 -12 54 C-12.10487898 52.4846902 -12.14868558 50.96492888 -12.16113281 49.44604492 C-12.17074036 48.50133835 -12.1803479 47.55663177 -12.19024658 46.58329773 C-12.19449646 45.55936417 -12.19874634 44.5354306 -12.203125 43.48046875 C-12.20882507 42.42974686 -12.21452515 41.37902496 -12.22039795 40.29646301 C-12.22985652 38.06964121 -12.23638532 35.84280536 -12.24023438 33.6159668 C-12.24993071 30.21182748 -12.2809427 26.80829416 -12.3125 23.40429688 C-12.31903086 21.24219109 -12.32428101 19.08008098 -12.328125 16.91796875 C-12.3404718 15.90010788 -12.3528186 14.88224701 -12.36553955 13.83354187 C-12.33747519 4.91081809 -12.33747519 4.91081809 -9 1 C-5.90826248 -0.54586876 -3.40570448 -0.29359521 0 0 Z " fill="#363636" transform="translate(423,80)"/>
<path d="M0 0 C3.3125 0.125 3.3125 0.125 7 1 C10.47761868 6.00554267 10.4565786 10.70243756 10.375 16.5625 C10.38660156 17.39974609 10.39820313 18.23699219 10.41015625 19.09960938 C10.38779653 23.80633012 10.230257 27.28926999 7 31 C3.3125 31.8125 3.3125 31.8125 0 32 C-4.10917262 27.0537737 -3.44311272 21.5260208 -3.375 15.4375 C-3.38660156 14.39658203 -3.39820313 13.35566406 -3.41015625 12.28320312 C-3.40628906 11.28095703 -3.40242187 10.27871094 -3.3984375 9.24609375 C-3.39505371 8.33529053 -3.39166992 7.4244873 -3.38818359 6.48608398 C-2.93404604 3.57760432 -1.92599148 2.18323662 0 0 Z " fill="#F6F6F6" transform="translate(250,94)"/>
<path d="M0 0 C2.75 -0.3125 2.75 -0.3125 6 0 C10.04572131 3.93637749 10.90390443 6.99987127 11.16796875 12.49609375 C11.17441406 13.79675781 11.18085938 15.09742187 11.1875 16.4375 C11.20167969 17.73558594 11.21585937 19.03367187 11.23046875 20.37109375 C10.965001 24.55108601 10.13663952 27.43035495 7.6875 30.8125 C6 32 6 32 3.5 32.4375 C1 32 1 32 -0.63354492 30.31640625 C-2.29707644 27.49639785 -2.37341111 25.759076 -2.36328125 22.5 C-2.36231445 20.9221875 -2.36231445 20.9221875 -2.36132812 19.3125 C-2.34521484 18.219375 -2.32910156 17.12625 -2.3125 16 C-2.31572266 14.906875 -2.31894531 13.81375 -2.32226562 12.6875 C-2.26249049 3.81904341 -2.26249049 3.81904341 0 0 Z " fill="#F9F9F9" transform="translate(476,94)"/>
</svg>
